<svg xmlns="http://www.w3.org/2000/svg" width="256" height="256" viewBox="0 0 256 256">
  <!-- Glyph: Tabler Icons "model-ai" (MIT), @tabler/icons 3.48.0, https://tabler.io/icons -->
  <defs>
    <linearGradient id="bg" x1="0" y1="0" x2="1" y2="1">
      <stop offset="0" stop-color="#1e88e5"/>
      <stop offset="1" stop-color="#0d47a1"/>
    </linearGradient>
  </defs>
  <rect width="256" height="256" rx="44" fill="url(#bg)"/>
  <g transform="translate(36 36) scale(7.6667)" fill="none" stroke="#ffffff" stroke-width="1.75" stroke-linecap="round" stroke-linejoin="round">
    <path d="M4 19a2 2 0 1 0 4 0a2 2 0 0 0 -4 0"/>
    <path d="M4 5a2 2 0 1 0 4 0a2 2 0 0 0 -4 0"/>
    <path d="M9 12a2 2 0 1 0 4 0a2 2 0 0 0 -4 0"/>
    <path d="M17 12a2 2 0 1 0 4 0a2 2 0 0 0 -4 0"/>
    <path d="M13 12h4"/>
    <path d="M9.75 10.25l-2.5 -3.5"/>
    <path d="M9.75 13.75l-2.5 3.5"/>
  </g>
</svg>
